<svg xmlns="http://www.w3.org/2000/svg" viewBox="0 0 930.58 663.05"><title>favicon</title><g id="Calque_2" data-name="Calque 2"><g id="Calque_1-2" data-name="Calque 1"><path d="M266.63,513.74l-73.8-69.6q-58.35-55.05-116.7-110.2c-6.2-5.9-12.5-11.8-18.7-17.7-8-7.5-15.2-14.7-27.7-14.7,7.1,17.1,14.1,34.1,21.2,51.2q36.6-34.5,73.1-69,57.9-54.6,115.7-109.2l26.8-25.3c11.4-10.8,11.7-31.7,0-42.4-12.3-11.3-30.2-11.5-42.4,0q-36.6,34.5-73.1,69Q93.13,230.44,35.33,285l-26.8,25.3c-8.7,8.3-10.7,22-6.2,32.8a30,30,0,0,0,27.4,18.4h.2c-7.1-2.9-14.1-5.9-21.2-8.8q36.6,34.5,73.1,69,57.9,54.6,115.7,109.2l26.8,25.3c11.4,10.8,31.3,12.2,42.4,0,10.6-11.7,12.1-31-.1-42.5Z"/><path d="M337.23,648.54c10.2-20.1,20.5-40.2,30.7-60.3q36.75-72,73.4-143.9,44.55-87.45,89.1-174.8,38.4-75.15,76.7-150.4c12.5-24.4,25.2-48.8,37.4-73.4.2-.3.3-.7.5-1,7.1-14,4.1-33.2-10.8-41-13.7-7.2-33.4-4.2-41,10.8-10.2,20.1-20.5,40.2-30.7,60.3q-36.75,72-73.4,143.9-44.55,87.45-89.1,174.8-38.4,75.15-76.7,150.4c-12.5,24.4-25.2,48.8-37.4,73.4-.2.3-.3.7-.5,1-7.1,14-4.1,33.2,10.8,41,13.6,7.2,33.4,4.1,41-10.8Z"/><path d="M706.23,556.14q36.6-34.5,73.1-69,57.9-54.6,115.7-109.2l26.8-25.3c-7.1,2.9-14.1,5.9-21.2,8.8h.2a30,30,0,0,0,27.4-18.4c4.5-10.8,2.6-24.5-6.2-32.8q-36.6-34.5-73.1-69-57.9-54.45-115.7-109.1l-26.8-25.3c-11.4-10.8-31.3-12.2-42.4,0-10.7,11.7-12.2,30.9,0,42.4q36.6,34.5,73.1,69,57.9,54.6,115.7,109.2l26.8,25.3c7.1-17.1,14.1-34.1,21.2-51.2-11.7,0-18.8,6.3-26.3,13.4-5.1,4.8-10.2,9.6-15.2,14.4-17,16-33.9,32-50.9,48l-117.5,110.9-27,25.5c-11.4,10.8-11.7,31.7,0,42.4,12.2,11.3,30.1,11.6,42.3,0Z"/></g></g></svg>